<svg width="375" height="812" viewBox="0 0 375 812" fill="none" xmlns="http://www.w3.org/2000/svg">
<path d="M502.995 613.922C507.042 614.322 510.654 611.368 510.998 607.316C519.388 508.483 497.66 409.392 448.586 323.119C398.298 234.712 321.775 164.13 229.588 121.121C137.402 78.1122 34.101 64.8001 -66.0436 83.0235C-166.188 101.247 -258.234 150.106 -329.466 222.853C-400.698 295.599 -447.601 388.642 -463.695 489.127C-479.789 589.613 -464.28 692.583 -419.31 783.813C-374.341 875.042 -302.13 950.029 -212.654 998.414C-125.336 1045.63 -25.7801 1065.24 72.8757 1054.75C76.919 1054.32 79.7958 1050.65 79.3094 1046.61C78.8224 1042.57 75.1479 1039.7 71.0989 1040.12C-24.5208 1050.24 -121.001 1031.21 -205.631 985.45C-292.423 938.517 -362.467 865.78 -406.088 777.287C-449.708 688.795 -464.752 588.914 -449.141 491.442C-433.53 393.971 -388.034 303.72 -318.939 233.156C-249.844 162.592 -160.559 115.198 -63.4191 97.5216C33.7212 79.8449 133.923 92.7576 223.344 134.476C312.765 176.195 386.992 244.66 435.771 330.414C483.335 414.03 504.415 510.06 496.331 605.849C495.989 609.908 498.942 613.521 502.995 613.922Z" fill="#F7F9FC"/>
<path d="M506.361 594.664C508.513 594.88 510.434 593.306 510.626 591.152C520.465 481.224 489.555 371.366 423.7 282.53C357.066 192.642 259.427 130.714 149.805 108.811C40.183 86.9085 -73.571 106.599 -169.296 164.047C-265.02 221.495 -335.86 312.586 -368.014 419.573C-400.167 526.561 -391.332 641.783 -343.23 742.793C-295.127 843.802 -211.202 923.364 -107.805 965.979C-4.40734 1008.59 111.057 1011.21 216.094 973.317C319.905 935.866 406.182 861.497 458.547 764.445C459.572 762.546 458.845 760.178 456.938 759.167C455.027 758.153 452.656 758.886 451.628 760.79C400.17 856.119 315.409 929.168 213.428 965.959C110.216 1003.19 -3.24108 1000.62 -104.841 958.749C-206.441 916.875 -288.908 838.696 -336.174 739.442C-383.441 640.188 -392.122 526.969 -360.527 421.841C-328.933 316.713 -259.324 227.205 -165.263 170.756C-71.2025 114.306 40.5742 94.9581 148.291 116.48C256.008 138.003 351.949 198.854 417.425 287.179C482.125 374.458 512.498 482.387 502.845 590.387C502.653 592.534 504.216 594.448 506.361 594.664Z" fill="#F7F9FC"/>
<path d="M431.548 359.111C434.645 357.508 435.863 353.697 434.218 350.622C404.993 296.006 364.011 248.538 314.183 211.643C262.664 173.496 203.055 147.664 139.922 136.125C76.7878 124.587 11.8031 127.647 -50.0569 145.072C-109.895 161.928 -165.274 191.793 -212.237 232.495C-214.868 234.774 -215.089 238.762 -212.77 241.358C-210.451 243.952 -206.472 244.172 -203.842 241.895C-158.317 202.476 -104.65 173.55 -46.6672 157.217C13.337 140.314 76.3721 137.345 137.612 148.538C198.852 159.731 256.672 184.787 306.646 221.79C354.923 257.537 394.64 303.517 422.982 356.418C424.632 359.498 428.445 360.717 431.548 359.111Z" fill="#F7F9FC"/>
<path d="M492.12 484.581C494.922 483.756 496.528 480.814 495.659 478.024C480.535 429.422 455.061 384.644 420.968 346.785C385.695 307.615 342.094 276.848 293.372 256.748C244.65 236.648 192.048 227.726 139.436 230.639C88.5851 233.454 38.9755 247.256 -5.98613 271.069C-8.56713 272.436 -9.50081 275.656 -8.09424 278.216C-6.68838 280.776 -3.47676 281.708 -0.896404 280.343C42.6801 257.288 90.7524 243.926 140.026 241.198C191.06 238.373 242.084 247.027 289.344 266.524C336.604 286.021 378.897 315.865 413.112 353.86C446.147 390.545 470.84 433.927 485.517 481.014C486.386 483.802 489.32 485.405 492.12 484.581Z" fill="#F7F9FC"/>
<path d="M505.539 613.719C509.883 614.463 514.013 611.545 514.689 607.191C527.69 523.485 520.511 437.83 493.697 357.374C466.041 274.392 418.353 199.502 354.857 139.336C291.361 79.1706 214.017 35.5867 129.676 12.4451C45.3343 -10.6964 -43.4009 -12.6813 -128.67 6.66647C-213.939 26.0142 -293.11 66.0972 -359.17 123.365C-425.229 180.633 -476.139 253.318 -507.389 334.982C-538.639 416.645 -549.264 504.767 -538.324 591.541C-527.717 675.677 -497.154 756.027 -449.231 825.912C-446.74 829.545 -441.756 830.393 -438.161 827.848C-434.567 825.303 -433.722 820.331 -436.211 816.698C-482.619 748.956 -512.218 671.087 -522.497 589.554C-533.109 505.383 -522.802 419.905 -492.49 340.691C-462.177 261.477 -412.795 190.973 -348.717 135.423C-284.639 79.873 -207.844 40.9925 -125.133 22.2252C-42.4216 3.45791 43.6516 5.3832 125.463 27.8305C207.274 50.2778 282.298 92.5542 343.889 150.915C405.48 209.276 451.737 281.919 478.563 362.411C504.548 440.381 511.524 523.383 498.961 604.505C498.288 608.857 501.199 612.976 505.539 613.719Z" fill="#F7F9FC"/>
<path d="M516.773 589.913C518.722 589.917 520.306 588.34 520.293 586.39C519.898 527.024 507.102 468.375 482.711 414.209C457.837 358.97 421.475 309.664 376.051 269.578C330.627 229.492 277.184 199.548 219.286 181.743C161.388 163.938 100.367 158.681 40.2912 166.323C-19.7847 173.964 -77.5342 194.329 -129.106 226.059C-180.678 257.789 -224.887 300.154 -258.785 350.33C-292.684 400.506 -315.491 457.34 -325.688 517.04C-335.687 575.581 -333.334 635.559 -318.796 693.128C-318.319 695.017 -316.391 696.146 -314.506 695.654C-312.621 695.162 -311.493 693.234 -311.97 691.344C-326.254 634.747 -328.562 575.783 -318.733 518.232C-308.705 459.52 -286.275 403.628 -252.938 354.283C-219.602 304.938 -176.125 263.274 -125.407 232.07C-74.6888 200.866 -17.8957 180.838 41.1851 173.323C100.266 165.808 160.277 170.978 217.215 188.488C274.154 205.998 326.712 235.446 371.384 274.868C416.056 314.29 451.816 362.78 476.278 417.104C500.257 470.356 512.841 528.014 513.237 586.377C513.25 588.326 514.825 589.909 516.773 589.913Z" fill="#F7F9FC"/>
</svg>
